<svg width="736" height="149" viewBox="0 0 736 149" fill="none" xmlns="http://www.w3.org/2000/svg">
<path fill-rule="evenodd" clip-rule="evenodd" d="M348.451 74V148H364.951H381.451V74V0H364.951H348.451V74ZM30.928 44.988C22.043 46.294 14.55 48.974 10.953 52.133C7.306 55.334 5.264 60.633 3.968 70.25L3.328 75H20.171H37.013L38.482 70.752C39.72 67.173 40.58 66.294 43.951 65.165C48.908 63.504 58.577 64.197 62.031 66.461C63.411 67.365 64.97 69.235 65.496 70.617C66.44 73.101 66.883 96 65.987 96C65.732 96 63.819 94.187 61.737 91.972C58.379 88.399 57.046 87.759 49.951 86.312C43.198 84.934 40.379 84.853 31.866 85.793C7.68 88.46 -0.00299912 96.226 8.78155e-07 118C0.00200088 129.075 1.368 133.796 6.08 139.011C14.293 148.102 35.469 151.436 53.193 146.429C59.209 144.73 64.469 140.082 66.233 134.906C67.264 131.882 67.36 132.429 67.087 139.773L66.779 148.047L83.365 147.773L99.951 147.5L100.249 115.5C100.555 82.622 99.634 67.773 96.882 61.174C93.308 52.605 85.872 48.304 69.775 45.497C60.854 43.942 39.913 43.667 30.928 44.988ZM146.1 45.039C123.804 48.523 117.414 55.307 117.475 75.432C117.551 100.421 125.25 105.988 162.422 107.93C170.963 108.377 179.161 109.228 180.641 109.823C186.108 112.021 186.244 123.988 180.826 126.048C179.448 126.571 173.461 127 167.521 127C155.084 127 152.177 125.682 151.02 119.518L150.36 116H133.406C120.505 116 116.453 116.299 116.459 117.25C116.515 126.618 121.167 138.458 126.048 141.656C130.117 144.321 140.606 146.784 153.184 148.026C178.478 150.525 204.539 145.135 211.286 136.01C218.415 126.366 219.376 105.124 213.104 95.812C208.286 88.658 197.846 85.364 175.675 84.002C167.273 83.486 158.627 82.586 156.462 82.003C149.614 80.159 147.297 73.596 151.701 68.516C153.699 66.211 154.903 65.858 162.451 65.365C173.61 64.636 178.557 66.162 179.908 70.75L180.865 74H196.551C209.388 74 212.339 73.735 212.798 72.539C213.731 70.107 211.668 60.087 209.518 56.609C207.254 52.945 200.666 49.035 192.451 46.478C186.006 44.473 155.74 43.533 146.1 45.039ZM261.451 45.511C244.599 48.941 238.252 55.405 233.789 73.682C231.397 83.477 231.383 109.802 233.765 120.104C237.302 135.405 243.726 142.036 258.951 146.1C265.585 147.871 269.855 148.243 283.951 148.28C307.512 148.342 319.014 145.372 324.851 137.72C327.746 133.925 330.451 124.539 330.451 118.29V114H316.033C308.103 114 300.999 113.764 300.247 113.475C299.303 113.113 298.507 114.343 297.677 117.444C295.923 124.004 293.094 125.5 282.451 125.5C269.387 125.5 266.277 122.519 264.854 108.631L264.175 102H297.313H330.451L330.434 90.25C330.39 60.652 322.754 49.564 299.565 45.428C290.015 43.724 270.014 43.768 261.451 45.511ZM428.951 45.109C409.174 47.961 402.669 53.34 400.504 68.632C399.907 72.843 399.897 78.128 400.475 82.692C402.069 95.265 406.269 100.937 416.274 104.027C423.927 106.391 436.794 107.978 448.451 107.997C463.105 108.021 467.451 110.43 467.451 118.531C467.451 125.792 466.279 126.454 452.784 126.824C437.92 127.232 435.852 126.53 434.247 120.526L433.036 116H416.101H399.166L399.813 122.25C400.565 129.514 404.698 138.505 408.571 141.304C415.87 146.577 442.017 150.019 460.263 148.108C487.903 145.214 496.832 138.966 499.562 120.612C500.941 111.337 499.463 101.215 495.944 95.846C491.295 88.752 480.714 85.417 458.33 83.992C441.081 82.894 436.147 81.831 433.988 78.749C431.858 75.709 432.044 70.407 434.362 68.089C436.671 65.78 446.855 64.455 454.36 65.487C459.474 66.191 463.451 69.317 463.451 72.635C463.451 73.731 466.598 74 479.451 74H495.451V69.366C495.451 55.64 486.994 48.079 468.238 45.035C460.823 43.832 437.503 43.876 428.951 45.109ZM543.511 45.47C533.312 47.394 527.961 49.605 525.004 53.119C521.993 56.698 519.451 64.748 519.451 70.706V75.048L536.138 74.774L552.826 74.5L553.623 71.419C554.847 66.691 557.554 64.892 564.371 64.274C572.168 63.567 578.729 65.843 580.38 69.829C581.08 71.519 581.408 77.353 581.233 85.036L580.951 97.5L578.841 93.93C574.728 86.971 562.043 83.869 545.841 85.86C525.605 88.347 517.916 94.676 515.395 110.921C514.28 118.109 515.075 127.404 517.295 133.139C519.024 137.604 524.198 142.645 529.31 144.844C543.343 150.881 567.803 149.624 576.357 142.426C578.007 141.037 579.919 138.348 580.605 136.451C582.588 130.967 583.342 132.403 582.73 140.5L582.162 148H598.878H615.594L615.197 108.25C614.774 65.973 614.654 64.865 609.594 56.887C606.247 51.61 601.706 49.14 590.451 46.477C580.381 44.094 553.829 43.525 543.511 45.47ZM639.315 44.805L636.678 45.111L636.815 96.553L636.951 147.995L653.701 147.998L670.451 148V114.648C670.451 81.707 670.479 81.255 672.701 77.99C676.359 72.615 679.776 70.676 686.44 70.194C694.507 69.611 697.844 71.112 700.105 76.342C701.692 80.011 701.937 84.325 702.187 113C702.343 130.875 702.466 146.063 702.461 146.75C702.453 147.7 706.426 148 719.02 148H735.588L735.265 106.25C734.913 60.784 734.978 61.323 728.972 54.201C719.426 42.879 692.028 40.368 679.666 49.681C677.859 51.042 675.003 54.596 673.32 57.578C671.637 60.56 669.853 63 669.356 63C668.858 63 668.451 58.95 668.451 54V45L665.201 44.903C654.742 44.592 641.589 44.542 639.315 44.805ZM292.78 69.707C295.917 71.288 298.451 76.32 298.451 80.968V84H281.951H265.451V79.95C265.451 72.246 269.072 68.557 277.451 67.724C282.679 67.204 289.588 68.098 292.78 69.707ZM62.213 107.377C65.711 109.186 66.451 110.717 66.451 116.148C66.451 124.304 62.272 127 49.632 127C36.3 127 33.451 124.963 33.451 115.435C33.451 110.404 35.672 107.433 40.176 106.438C41.702 106.101 43.401 105.645 43.951 105.426C46.208 104.525 59.43 105.938 62.213 107.377ZM573.436 106.082C579.995 107.594 581.451 109.323 581.451 115.599C581.451 119.748 580.931 121.493 579.038 123.694C576.654 126.468 576.492 126.5 565.068 126.5C554.656 126.5 553.302 126.292 551.405 124.397C548.768 121.762 547.782 115.029 549.446 111.013C551.536 105.965 562.843 103.642 573.436 106.082Z" fill="#23A5C9"/>
</svg>
